<svg xmlns="http://www.w3.org/2000/svg" width="300" height="167"><g filter="blur(12px)"><rect width="200%" height="200%" x="-50%" y="-50%" fill="#967476"/><rect width="100%" height="100%" fill="#967476"/><g fill-opacity=".5" transform="translate(.6 .6)scale(1.17188)"><circle r="1" fill="#fff" transform="matrix(69.22069 -118.457 43.26196 25.28025 26.4 55)"/><circle r="1" fill="#fff" transform="matrix(63.81474 89.71123 -38.11562 27.11297 222.8 34.7)"/><circle r="1" fill="#0e090a" transform="rotate(-179.5 57.4 54.8)scale(86.67477 28.51033)"/><ellipse cx="43" cy="22" fill="#fff" rx="55" ry="32"/><path fill="#fff" d="M337.5 144.9 120 160l-1.5-21L336 124z"/><ellipse cx="236" cy="28" fill="#fff" rx="73" ry="34"/><path fill="#4d4142" d="m210 70.9-53 67.8L68 69l53-67.8z"/><circle r="1" fill="#fff" transform="rotate(11.5 -687.2 246.3)scale(73.12598 14.70504)"/></g></g></svg>