<svg xmlns="http://www.w3.org/2000/svg" width="300" height="167"><g filter="blur(12px)"><rect width="200%" height="200%" x="-50%" y="-50%" fill="#9a6953"/><rect width="100%" height="100%" fill="#9a6953"/><g fill-opacity=".5" transform="translate(.6 .6)scale(1.17188)"><circle r="1" fill="#fffff8" transform="rotate(47.9 -43.7 66.5)scale(63.57249 108.55618)"/><path fill="#fff" d="M198 99 256-6l15 138z"/><circle r="1" fill="#001524" transform="matrix(-14.44124 86.47162 -29.22597 -4.8809 128.8 113.2)"/><circle r="1" fill="#fff" transform="matrix(-7.3731 7.66431 -34.83118 -33.50776 176.9 14)"/><path fill="#710903" d="M73 64 55 10 96-9z"/><circle r="1" fill="#e3f3d5" transform="matrix(-.21411 -9.58501 40.20053 -.898 60.3 136.8)"/><circle r="1" fill="#e1edd4" transform="matrix(30.02438 -164.18597 14.13674 2.58516 239.4 98.5)"/><ellipse cx="223" cy="29" fill="#7e2624" rx="19" ry="34"/></g></g></svg>