<svg xmlns="http://www.w3.org/2000/svg" width="300" height="167"><g filter="blur(12px)"><rect width="200%" height="200%" x="-50%" y="-50%" fill="#ac7a6b"/><rect width="100%" height="100%" fill="#ac7a6b"/><g fill-opacity=".5" transform="translate(.6 .6)scale(1.17188)"><ellipse cx="199" cy="33" fill="#d5fff7" rx="168" ry="63"/><ellipse cx="153" cy="141" fill="#d0f6ee" rx="255" ry="14"/><circle r="1" fill="#4f435a" transform="matrix(-28.32783 13.93902 -7.32363 -14.88359 72.3 116.4)"/><circle r="1" fill="#73879b" transform="matrix(-9.39577 60.89796 -30.48829 -4.70395 20.6 26.5)"/><circle r="1" fill="#ece5c7" transform="matrix(-17.42173 -15.94391 100.57191 -109.89382 229.2 141.3)"/><circle r="1" fill="#cdd7c8" transform="matrix(-58.17691 141.27797 -13.35306 -5.49866 37.8 105.7)"/><path fill="#4e4a63" d="M194 134 67 98l138-1z"/><path fill="#f5e8c8" d="m151.1 130.8-9.8-38.4-13.6 33.3-1.3-2.2z"/></g></g></svg>