<svg xmlns="http://www.w3.org/2000/svg" width="300" height="168"><g filter="blur(12px)"><rect width="200%" height="200%" x="-50%" y="-50%" fill="#b369a9"/><rect width="100%" height="100%" fill="#b369a9"/><g fill-opacity=".5" transform="translate(.6 .6)scale(1.17188)"><circle r="1" fill="#001922" transform="matrix(7.66329 95.24568 -252.94385 20.35138 116 65.4)"/><circle r="1" fill="#000100" transform="matrix(-48.25153 -.08421 .16095 -92.22027 20.3 63.2)"/><circle r="1" fill="#d7a1ea" transform="matrix(-6.38184 26.16193 -88.55076 -21.60072 133 10.8)"/><ellipse cx="143" cy="94" fill="#20000a" rx="25" ry="78"/><circle r="1" fill="#9daeff" transform="matrix(24.03447 -24.56877 14.1633 13.85529 92.8 122)"/><circle r="1" fill="#7c8cd5" transform="matrix(-21.62878 14.53394 -32.2857 -48.0462 218 92)"/><path fill="#e5dbff" d="m94 45 17-47-49 9z"/><circle r="1" fill="#001d2a" transform="matrix(-24.26086 38.25296 -26.79893 -16.99646 255 54)"/></g></g></svg>