<svg xmlns="http://www.w3.org/2000/svg" width="300" height="167"><g filter="blur(12px)"><rect width="200%" height="200%" x="-50%" y="-50%" fill="#5d6c84"/><rect width="100%" height="100%" fill="#5d6c84"/><circle r="1" fill="#ff003f" fill-opacity=".5" transform="matrix(71.90865 98.19116 -111.47684 81.6382 51.9 91.2)"/><circle r="1" fill="#6c1151" fill-opacity=".5" transform="matrix(76.30194 71.73153 -109.81168 116.80838 217.4 110)"/><circle r="1" fill="#ff1849" fill-opacity=".5" transform="rotate(82 -35.2 50.9)scale(220.33749 41.90117)"/><path fill="#bdffff" fill-opacity=".5" d="M86.3 103.4 67.3 48l21-7.3 19 55.4z"/><circle r="1" fill="#001d62" fill-opacity=".5" transform="matrix(4.19976 -20.6425 72.42296 14.73462 128.7 129.5)"/><circle r="1" fill="#ff2a5f" fill-opacity=".5" transform="matrix(-14.69596 24.23908 -72.79653 -44.13594 101 15.5)"/><path fill="#ff4b6e" fill-opacity=".5" d="m304.4 44.3-76.1-13.5 12.2-69.2L316.7-25z"/><circle r="1" fill="#ff1c53" fill-opacity=".5" transform="matrix(-16.42587 -5.30541 31.8374 -98.57049 299.5 149.2)"/></g></svg>