<svg xmlns="http://www.w3.org/2000/svg" width="300" height="169"><g filter="blur(12px)"><rect width="200%" height="200%" x="-50%" y="-50%" fill="#697ca9"/><rect width="100%" height="100%" fill="#697ca9"/><g fill-opacity=".5" transform="translate(.6 .6)scale(1.17188)"><circle r="1" fill="#4b0700" transform="rotate(-155.1 65.6 17.5)scale(188.11749 136.06951)"/><path fill="#e5667c" d="M113-16 95 152l127-69z"/><circle r="1" fill="#093a3f" transform="rotate(-175.3 21.5 26.4)scale(57.7832 114.79335)"/><circle r="1" fill="#00161e" transform="matrix(27.83064 -7.1457 10.50102 40.89878 250.5 103)"/><circle r="1" fill="#2d0008" transform="matrix(15.13213 26.36788 -15.61331 8.96025 193.3 114.6)"/><path fill="#540007" d="M109 33h34v41h-34z"/><ellipse cx="126" cy="13" fill="#d6cfd3" rx="24" ry="11"/><path fill="#e7c9d0" d="m212.8 100.7-45.3-32.9 7.7-10.5 45.3 32.9z"/></g></g></svg>